<svg xmlns="http://www.w3.org/2000/svg" xmlns:xlink="http://www.w3.org/1999/xlink" version="1.1" x="0px" y="0px" viewBox="0 0 64 80" style="enable-background:new 0 0 64 64;" xml:space="preserve"><path d="M14.286,49.714c-2.41-2.41-5.762-3.255-7.71-3.552l-2.869-2.869l-1.414,1.414l2.869,2.869c0.297,1.948,1.143,5.3,3.552,7.71  c2.667,2.667,6.493,3.42,8.286,3.632V62h2v-3.083c1.792-0.211,5.618-0.964,8.286-3.632c2.41-2.41,3.255-5.762,3.552-7.71  l2.869-2.869l-1.414-1.414l-2.869,2.869c-1.948,0.297-5.3,1.143-7.71,3.552c-1.317,1.317-2.165,2.918-2.714,4.417v-5.214  c1.792-0.211,5.618-0.964,8.286-3.632c2.41-2.41,3.255-5.762,3.552-7.71l2.869-2.869l-1.414-1.414l-2.869,2.869  c-1.948,0.297-5.3,1.143-7.71,3.552c-1.317,1.317-2.165,2.918-2.714,4.417v-5.214c1.792-0.211,5.618-0.964,8.286-3.632  c2.41-2.41,3.255-5.762,3.552-7.71l2.869-2.869l-1.414-1.414l-2.869,2.869c-1.948,0.297-5.3,1.143-7.71,3.552  c-1.317,1.317-2.165,2.918-2.714,4.417v-5.214c1.792-0.211,5.618-0.964,8.286-3.632c2.41-2.41,3.255-5.762,3.552-7.71l2.869-2.869  l-1.414-1.414l-2.869,2.869c-1.948,0.297-5.3,1.143-7.71,3.552c-1.317,1.317-2.165,2.918-2.714,4.417V22h-0.141  C20.034,20.506,22,17.488,22,14c0-3.351-1.815-6.268-3-7.817V2h-2v4.183c-1.185,1.549-3,4.466-3,7.817c0,3.488,1.966,6.506,3.141,8  H17v2.131c-0.549-1.499-1.397-3.099-2.714-4.417c-2.41-2.41-5.762-3.255-7.71-3.552l-2.869-2.869l-1.414,1.414l2.869,2.869  c0.297,1.948,1.143,5.3,3.552,7.71c2.667,2.667,6.493,3.42,8.286,3.632v5.214c-0.549-1.499-1.397-3.099-2.714-4.417  c-2.41-2.41-5.762-3.255-7.71-3.552l-2.869-2.869l-1.414,1.414l2.869,2.869c0.297,1.948,1.143,5.3,3.552,7.71  c2.667,2.667,6.493,3.42,8.286,3.632v5.214c-0.549-1.499-1.397-3.099-2.714-4.417c-2.41-2.41-5.762-3.255-7.71-3.552l-2.869-2.869  l-1.414,1.414l2.869,2.869c0.297,1.948,1.143,5.3,3.552,7.71c2.667,2.667,6.493,3.42,8.286,3.632v5.214  C16.451,52.632,15.603,51.032,14.286,49.714z"/><rect x="55" y="12" width="2" height="2"/><rect x="55" y="2" width="2" height="8"/><rect x="51" y="14" width="2" height="2"/><rect x="45" y="8" width="2" height="6"/><rect x="45" y="4" width="2" height="2"/><path d="M57,16h-4v2h-2v-2h-6v32h-5l11,14l11-14h-5V16z M53,34h-2V24h2V34z M53,22h-2v-2h2V22z"/></svg>